<mxfile host="app.diagrams.net" agent="Mozilla/5.0 (Windows NT 10.0; Win64; x64) AppleWebKit/537.36 (KHTML, like Gecko) Chrome/131.0.0.0 Safari/537.36" version="25.0.3">
  <diagram name="Página-1" id="CfLHYrVwDZEc-xqbIYZy">
    <mxGraphModel dx="2427" dy="924" grid="1" gridSize="10" guides="1" tooltips="1" connect="1" arrows="1" fold="1" page="1" pageScale="1" pageWidth="827" pageHeight="1169" math="0" shadow="0">
      <root>
        <mxCell id="0" />
        <mxCell id="1" parent="0" />
        <mxCell id="fp-A4MkA556f69ubHUxs-1" value="Usuário" style="rounded=1;whiteSpace=wrap;html=1;labelBackgroundColor=none;fillColor=#f5f5f5;strokeColor=#666666;gradientColor=#b3b3b3;" parent="1" vertex="1">
          <mxGeometry x="-3" y="430" width="120" height="60" as="geometry" />
        </mxCell>
        <mxCell id="fp-A4MkA556f69ubHUxs-2" value="Postagem" style="rounded=0;whiteSpace=wrap;html=1;labelBackgroundColor=none;fillColor=#f5f5f5;strokeColor=#666666;gradientColor=#b3b3b3;" parent="1" vertex="1">
          <mxGeometry x="347" y="430" width="120" height="60" as="geometry" />
        </mxCell>
        <mxCell id="fp-A4MkA556f69ubHUxs-3" value="Comentario" style="rounded=0;whiteSpace=wrap;html=1;labelBackgroundColor=none;fillColor=#f5f5f5;strokeColor=#666666;gradientColor=#b3b3b3;" parent="1" vertex="1">
          <mxGeometry x="347" y="200" width="120" height="60" as="geometry" />
        </mxCell>
        <mxCell id="fp-A4MkA556f69ubHUxs-4" value="Imagens" style="rounded=0;whiteSpace=wrap;html=1;labelBackgroundColor=none;fillColor=#f5f5f5;strokeColor=#666666;gradientColor=#b3b3b3;" parent="1" vertex="1">
          <mxGeometry x="348" y="730" width="120" height="60" as="geometry" />
        </mxCell>
        <mxCell id="fp-A4MkA556f69ubHUxs-5" value="Posta" style="shape=rhombus;perimeter=rhombusPerimeter;whiteSpace=wrap;html=1;align=center;labelBackgroundColor=none;fillColor=#dae8fc;strokeColor=#6c8ebf;gradientColor=#7ea6e0;" parent="1" vertex="1">
          <mxGeometry x="177" y="430" width="120" height="60" as="geometry" />
        </mxCell>
        <mxCell id="fp-A4MkA556f69ubHUxs-6" value="" style="endArrow=none;html=1;rounded=0;exitX=1;exitY=0.5;exitDx=0;exitDy=0;entryX=0;entryY=0.5;entryDx=0;entryDy=0;labelBackgroundColor=none;strokeColor=#666666;fontColor=default;fillColor=#f5f5f5;" parent="1" source="fp-A4MkA556f69ubHUxs-1" target="fp-A4MkA556f69ubHUxs-5" edge="1">
          <mxGeometry relative="1" as="geometry">
            <mxPoint x="297" y="640" as="sourcePoint" />
            <mxPoint x="457" y="640" as="targetPoint" />
          </mxGeometry>
        </mxCell>
        <mxCell id="fp-A4MkA556f69ubHUxs-7" value="" style="endArrow=none;html=1;rounded=0;exitX=1;exitY=0.5;exitDx=0;exitDy=0;entryX=0;entryY=0.5;entryDx=0;entryDy=0;labelBackgroundColor=none;strokeColor=#666666;fontColor=default;fillColor=#f5f5f5;" parent="1" source="fp-A4MkA556f69ubHUxs-5" target="fp-A4MkA556f69ubHUxs-2" edge="1">
          <mxGeometry relative="1" as="geometry">
            <mxPoint x="217" y="670" as="sourcePoint" />
            <mxPoint x="377" y="670" as="targetPoint" />
          </mxGeometry>
        </mxCell>
        <mxCell id="fp-A4MkA556f69ubHUxs-8" value="" style="endArrow=none;html=1;rounded=0;exitX=0.5;exitY=0;exitDx=0;exitDy=0;entryX=0;entryY=0.5;entryDx=0;entryDy=0;labelBackgroundColor=none;strokeColor=#666666;fontColor=default;fillColor=#f5f5f5;" parent="1" source="fp-A4MkA556f69ubHUxs-2" target="tyfLZ9diZcg1NOo2T1-P-37" edge="1">
          <mxGeometry relative="1" as="geometry">
            <mxPoint x="417" y="400" as="sourcePoint" />
            <mxPoint x="487" y="380" as="targetPoint" />
          </mxGeometry>
        </mxCell>
        <mxCell id="fp-A4MkA556f69ubHUxs-10" value="" style="endArrow=none;html=1;rounded=0;exitX=0;exitY=0.5;exitDx=0;exitDy=0;entryX=0.5;entryY=1;entryDx=0;entryDy=0;labelBackgroundColor=none;strokeColor=#666666;fontColor=default;fillColor=#f5f5f5;" parent="1" source="tyfLZ9diZcg1NOo2T1-P-37" target="fp-A4MkA556f69ubHUxs-3" edge="1">
          <mxGeometry relative="1" as="geometry">
            <mxPoint x="497" y="320" as="sourcePoint" />
            <mxPoint x="677" y="600" as="targetPoint" />
          </mxGeometry>
        </mxCell>
        <mxCell id="tyfLZ9diZcg1NOo2T1-P-23" style="edgeStyle=orthogonalEdgeStyle;rounded=0;orthogonalLoop=1;jettySize=auto;html=1;entryX=0.5;entryY=0;entryDx=0;entryDy=0;endArrow=none;endFill=0;labelBackgroundColor=none;strokeColor=#666666;fontColor=default;fillColor=#f5f5f5;" parent="1" source="fp-A4MkA556f69ubHUxs-12" target="fp-A4MkA556f69ubHUxs-4" edge="1">
          <mxGeometry relative="1" as="geometry" />
        </mxCell>
        <mxCell id="fp-A4MkA556f69ubHUxs-12" value="Possui" style="shape=rhombus;perimeter=rhombusPerimeter;whiteSpace=wrap;html=1;align=center;labelBackgroundColor=none;fillColor=#dae8fc;strokeColor=#6c8ebf;gradientColor=#7ea6e0;" parent="1" vertex="1">
          <mxGeometry x="347" y="570" width="120" height="60" as="geometry" />
        </mxCell>
        <mxCell id="fp-A4MkA556f69ubHUxs-13" value="" style="endArrow=none;html=1;rounded=0;exitX=0.5;exitY=0;exitDx=0;exitDy=0;entryX=0.5;entryY=1;entryDx=0;entryDy=0;labelBackgroundColor=none;strokeColor=#666666;fontColor=default;fillColor=#f5f5f5;" parent="1" source="fp-A4MkA556f69ubHUxs-12" target="fp-A4MkA556f69ubHUxs-2" edge="1">
          <mxGeometry relative="1" as="geometry">
            <mxPoint x="557" y="610" as="sourcePoint" />
            <mxPoint x="717" y="610" as="targetPoint" />
          </mxGeometry>
        </mxCell>
        <mxCell id="fp-A4MkA556f69ubHUxs-24" value="id" style="ellipse;whiteSpace=wrap;html=1;align=center;labelBackgroundColor=none;fillColor=#f5f5f5;strokeColor=#666666;gradientColor=#b3b3b3;" parent="1" vertex="1">
          <mxGeometry x="727" y="440" width="100" height="40" as="geometry" />
        </mxCell>
        <mxCell id="fp-A4MkA556f69ubHUxs-27" value="curtida" style="ellipse;whiteSpace=wrap;html=1;align=center;labelBackgroundColor=none;fillColor=#f5f5f5;strokeColor=#666666;gradientColor=#b3b3b3;" parent="1" vertex="1">
          <mxGeometry x="727" y="480" width="100" height="40" as="geometry" />
        </mxCell>
        <mxCell id="fp-A4MkA556f69ubHUxs-31" value="1" style="text;strokeColor=#666666;fillColor=#f5f5f5;spacingLeft=4;spacingRight=4;overflow=hidden;rotatable=0;points=[[0,0.5],[1,0.5]];portConstraint=eastwest;fontSize=12;whiteSpace=wrap;html=1;labelBackgroundColor=none;gradientColor=#b3b3b3;" parent="1" vertex="1">
          <mxGeometry x="410" y="710" width="17" height="20" as="geometry" />
        </mxCell>
        <mxCell id="fp-A4MkA556f69ubHUxs-32" value="N" style="text;strokeColor=#666666;fillColor=#f5f5f5;spacingLeft=4;spacingRight=4;overflow=hidden;rotatable=0;points=[[0,0.5],[1,0.5]];portConstraint=eastwest;fontSize=12;whiteSpace=wrap;html=1;labelBackgroundColor=none;gradientColor=#b3b3b3;" parent="1" vertex="1">
          <mxGeometry x="117" y="460" width="40" height="30" as="geometry" />
        </mxCell>
        <mxCell id="fp-A4MkA556f69ubHUxs-33" value="0,N" style="text;strokeColor=#666666;fillColor=#f5f5f5;spacingLeft=4;spacingRight=4;overflow=hidden;rotatable=0;points=[[0,0.5],[1,0.5]];portConstraint=eastwest;fontSize=12;whiteSpace=wrap;html=1;labelBackgroundColor=none;gradientColor=#b3b3b3;" parent="1" vertex="1">
          <mxGeometry x="407" y="260" width="60" height="30" as="geometry" />
        </mxCell>
        <mxCell id="fp-A4MkA556f69ubHUxs-34" value="id" style="ellipse;whiteSpace=wrap;html=1;align=center;labelBackgroundColor=none;fillColor=#f5f5f5;strokeColor=#666666;gradientColor=#b3b3b3;" parent="1" vertex="1">
          <mxGeometry x="-373" y="340" width="100" height="40" as="geometry" />
        </mxCell>
        <mxCell id="fp-A4MkA556f69ubHUxs-35" value="nome" style="ellipse;whiteSpace=wrap;html=1;align=center;labelBackgroundColor=none;fillColor=#f5f5f5;strokeColor=#666666;gradientColor=#b3b3b3;" parent="1" vertex="1">
          <mxGeometry x="-373" y="390" width="100" height="40" as="geometry" />
        </mxCell>
        <mxCell id="fp-A4MkA556f69ubHUxs-36" value="email" style="ellipse;whiteSpace=wrap;html=1;align=center;labelBackgroundColor=none;fillColor=#f5f5f5;strokeColor=#666666;gradientColor=#b3b3b3;" parent="1" vertex="1">
          <mxGeometry x="-373" y="440" width="100" height="40" as="geometry" />
        </mxCell>
        <mxCell id="fp-A4MkA556f69ubHUxs-38" value="ID" style="ellipse;whiteSpace=wrap;html=1;align=center;labelBackgroundColor=none;fillColor=#f5f5f5;strokeColor=#666666;gradientColor=#b3b3b3;" parent="1" vertex="1">
          <mxGeometry x="167" y="210" width="100" height="40" as="geometry" />
        </mxCell>
        <mxCell id="fp-A4MkA556f69ubHUxs-40" value="id" style="ellipse;whiteSpace=wrap;html=1;align=center;labelBackgroundColor=none;fillColor=#f5f5f5;strokeColor=#666666;gradientColor=#b3b3b3;" parent="1" vertex="1">
          <mxGeometry x="298" y="845" width="100" height="40" as="geometry" />
        </mxCell>
        <mxCell id="fp-A4MkA556f69ubHUxs-41" value="&lt;div&gt;urlImagem&lt;/div&gt;" style="ellipse;whiteSpace=wrap;html=1;align=center;labelBackgroundColor=none;fillColor=#f5f5f5;strokeColor=#666666;gradientColor=#b3b3b3;" parent="1" vertex="1">
          <mxGeometry x="416" y="845" width="100" height="40" as="geometry" />
        </mxCell>
        <mxCell id="fp-A4MkA556f69ubHUxs-44" value="senha" style="ellipse;whiteSpace=wrap;html=1;align=center;labelBackgroundColor=none;fillColor=#f5f5f5;strokeColor=#666666;gradientColor=#b3b3b3;" parent="1" vertex="1">
          <mxGeometry x="-373" y="490" width="100" height="40" as="geometry" />
        </mxCell>
        <mxCell id="fp-A4MkA556f69ubHUxs-46" value="" style="endArrow=none;html=1;rounded=0;exitX=1;exitY=0.5;exitDx=0;exitDy=0;entryX=0;entryY=0.5;entryDx=0;entryDy=0;edgeStyle=orthogonalEdgeStyle;labelBackgroundColor=none;strokeColor=#666666;fontColor=default;fillColor=#f5f5f5;" parent="1" source="fp-A4MkA556f69ubHUxs-34" target="fp-A4MkA556f69ubHUxs-1" edge="1">
          <mxGeometry relative="1" as="geometry">
            <mxPoint x="47" y="740" as="sourcePoint" />
            <mxPoint x="207" y="740" as="targetPoint" />
          </mxGeometry>
        </mxCell>
        <mxCell id="fp-A4MkA556f69ubHUxs-47" value="" style="endArrow=none;html=1;rounded=0;entryX=0;entryY=0.5;entryDx=0;entryDy=0;exitX=1;exitY=0.5;exitDx=0;exitDy=0;edgeStyle=orthogonalEdgeStyle;labelBackgroundColor=none;strokeColor=#666666;fontColor=default;fillColor=#f5f5f5;" parent="1" source="fp-A4MkA556f69ubHUxs-35" target="fp-A4MkA556f69ubHUxs-1" edge="1">
          <mxGeometry relative="1" as="geometry">
            <mxPoint x="-83" y="510" as="sourcePoint" />
            <mxPoint x="57" y="800" as="targetPoint" />
          </mxGeometry>
        </mxCell>
        <mxCell id="fp-A4MkA556f69ubHUxs-48" value="" style="endArrow=none;html=1;rounded=0;entryX=0;entryY=0.5;entryDx=0;entryDy=0;exitX=1;exitY=0.5;exitDx=0;exitDy=0;edgeStyle=orthogonalEdgeStyle;labelBackgroundColor=none;strokeColor=#666666;fontColor=default;fillColor=#f5f5f5;" parent="1" source="fp-A4MkA556f69ubHUxs-36" target="fp-A4MkA556f69ubHUxs-1" edge="1">
          <mxGeometry relative="1" as="geometry">
            <mxPoint x="-73" y="540" as="sourcePoint" />
            <mxPoint x="87" y="540" as="targetPoint" />
          </mxGeometry>
        </mxCell>
        <mxCell id="fp-A4MkA556f69ubHUxs-50" value="" style="endArrow=none;html=1;rounded=0;entryX=0;entryY=0.5;entryDx=0;entryDy=0;exitX=1;exitY=0.5;exitDx=0;exitDy=0;edgeStyle=orthogonalEdgeStyle;labelBackgroundColor=none;strokeColor=#666666;fontColor=default;fillColor=#f5f5f5;" parent="1" source="MUOkOZ8rBIs0wQs2CUvy-12" target="fp-A4MkA556f69ubHUxs-1" edge="1">
          <mxGeometry relative="1" as="geometry">
            <mxPoint x="-263" y="574.5" as="sourcePoint" />
            <mxPoint x="-103" y="574.5" as="targetPoint" />
          </mxGeometry>
        </mxCell>
        <mxCell id="fp-A4MkA556f69ubHUxs-68" value="" style="endArrow=none;html=1;rounded=0;exitX=1;exitY=0.5;exitDx=0;exitDy=0;entryX=0;entryY=0.5;entryDx=0;entryDy=0;edgeStyle=orthogonalEdgeStyle;labelBackgroundColor=none;strokeColor=#666666;fontColor=default;fillColor=#f5f5f5;" parent="1" source="fp-A4MkA556f69ubHUxs-2" target="fp-A4MkA556f69ubHUxs-24" edge="1">
          <mxGeometry relative="1" as="geometry">
            <mxPoint x="467" y="460" as="sourcePoint" />
            <mxPoint x="627" y="460" as="targetPoint" />
          </mxGeometry>
        </mxCell>
        <mxCell id="fp-A4MkA556f69ubHUxs-72" value="" style="endArrow=none;html=1;rounded=0;exitX=1;exitY=0.5;exitDx=0;exitDy=0;entryX=0;entryY=0.5;entryDx=0;entryDy=0;edgeStyle=orthogonalEdgeStyle;labelBackgroundColor=none;strokeColor=#666666;fontColor=default;fillColor=#f5f5f5;" parent="1" source="fp-A4MkA556f69ubHUxs-2" target="fp-A4MkA556f69ubHUxs-27" edge="1">
          <mxGeometry relative="1" as="geometry">
            <mxPoint x="527" y="530" as="sourcePoint" />
            <mxPoint x="687" y="530" as="targetPoint" />
          </mxGeometry>
        </mxCell>
        <mxCell id="fp-A4MkA556f69ubHUxs-73" value="" style="endArrow=none;html=1;rounded=0;edgeStyle=orthogonalEdgeStyle;exitX=0.5;exitY=1;exitDx=0;exitDy=0;entryX=0.5;entryY=0;entryDx=0;entryDy=0;labelBackgroundColor=none;strokeColor=#666666;fontColor=default;fillColor=#f5f5f5;" parent="1" source="fp-A4MkA556f69ubHUxs-4" target="fp-A4MkA556f69ubHUxs-41" edge="1">
          <mxGeometry relative="1" as="geometry">
            <mxPoint x="239.75" y="885" as="sourcePoint" />
            <mxPoint x="488" y="890" as="targetPoint" />
          </mxGeometry>
        </mxCell>
        <mxCell id="fp-A4MkA556f69ubHUxs-74" value="" style="endArrow=none;html=1;rounded=0;entryX=0.5;entryY=1;entryDx=0;entryDy=0;edgeStyle=orthogonalEdgeStyle;exitX=0.5;exitY=0;exitDx=0;exitDy=0;labelBackgroundColor=none;strokeColor=#666666;fontColor=default;fillColor=#f5f5f5;" parent="1" source="fp-A4MkA556f69ubHUxs-40" target="fp-A4MkA556f69ubHUxs-4" edge="1">
          <mxGeometry relative="1" as="geometry">
            <mxPoint x="360" y="890" as="sourcePoint" />
            <mxPoint x="229.75" y="815" as="targetPoint" />
          </mxGeometry>
        </mxCell>
        <mxCell id="fp-A4MkA556f69ubHUxs-75" value="" style="endArrow=none;html=1;rounded=0;exitX=1;exitY=0.5;exitDx=0;exitDy=0;entryX=0;entryY=0.75;entryDx=0;entryDy=0;edgeStyle=orthogonalEdgeStyle;endFill=0;labelBackgroundColor=none;strokeColor=#666666;fontColor=default;fillColor=#f5f5f5;gradientColor=#b3b3b3;" parent="1" source="fp-A4MkA556f69ubHUxs-38" target="fp-A4MkA556f69ubHUxs-3" edge="1">
          <mxGeometry relative="1" as="geometry">
            <mxPoint x="267" y="130" as="sourcePoint" />
            <mxPoint x="427" y="130" as="targetPoint" />
          </mxGeometry>
        </mxCell>
        <mxCell id="SXT4OArEgctWhixOykqU-1" value="1" style="text;strokeColor=#666666;fillColor=#f5f5f5;spacingLeft=4;spacingRight=4;overflow=hidden;rotatable=0;points=[[0,0.5],[1,0.5]];portConstraint=eastwest;fontSize=12;whiteSpace=wrap;html=1;labelBackgroundColor=none;gradientColor=#b3b3b3;" parent="1" vertex="1">
          <mxGeometry x="327" y="465" width="20" height="25" as="geometry" />
        </mxCell>
        <mxCell id="SXT4OArEgctWhixOykqU-2" value="N" style="text;strokeColor=#666666;fillColor=#f5f5f5;spacingLeft=4;spacingRight=4;overflow=hidden;rotatable=0;points=[[0,0.5],[1,0.5]];portConstraint=eastwest;fontSize=12;whiteSpace=wrap;html=1;labelBackgroundColor=none;gradientColor=#b3b3b3;" parent="1" vertex="1">
          <mxGeometry x="407" y="492.5" width="20" height="27.5" as="geometry" />
        </mxCell>
        <mxCell id="SXT4OArEgctWhixOykqU-21" value="1,1" style="text;strokeColor=#666666;fillColor=#f5f5f5;spacingLeft=4;spacingRight=4;overflow=hidden;rotatable=0;points=[[0,0.5],[1,0.5]];portConstraint=eastwest;fontSize=12;whiteSpace=wrap;html=1;labelBackgroundColor=none;gradientColor=#b3b3b3;" parent="1" vertex="1">
          <mxGeometry x="415" y="400" width="32" height="20" as="geometry" />
        </mxCell>
        <mxCell id="MUOkOZ8rBIs0wQs2CUvy-2" value="&lt;div&gt;TITULO&lt;/div&gt;" style="ellipse;whiteSpace=wrap;html=1;align=center;labelBackgroundColor=none;fillColor=#f5f5f5;strokeColor=#666666;gradientColor=#b3b3b3;" parent="1" vertex="1">
          <mxGeometry x="727" y="520" width="100" height="40" as="geometry" />
        </mxCell>
        <mxCell id="MUOkOZ8rBIs0wQs2CUvy-5" value="" style="endArrow=none;html=1;rounded=0;exitX=0;exitY=0.5;exitDx=0;exitDy=0;entryX=1;entryY=0.5;entryDx=0;entryDy=0;edgeStyle=orthogonalEdgeStyle;labelBackgroundColor=none;strokeColor=#666666;fontColor=default;fillColor=#f5f5f5;" parent="1" source="MUOkOZ8rBIs0wQs2CUvy-2" target="fp-A4MkA556f69ubHUxs-2" edge="1">
          <mxGeometry width="50" height="50" relative="1" as="geometry">
            <mxPoint x="177" y="560" as="sourcePoint" />
            <mxPoint x="227" y="510" as="targetPoint" />
          </mxGeometry>
        </mxCell>
        <mxCell id="MUOkOZ8rBIs0wQs2CUvy-11" value="" style="edgeStyle=orthogonalEdgeStyle;rounded=0;orthogonalLoop=1;jettySize=auto;html=1;entryX=1;entryY=0.5;entryDx=0;entryDy=0;labelBackgroundColor=none;strokeColor=#666666;fontColor=default;fillColor=#f5f5f5;" parent="1" source="MUOkOZ8rBIs0wQs2CUvy-7" target="fp-A4MkA556f69ubHUxs-2" edge="1">
          <mxGeometry relative="1" as="geometry" />
        </mxCell>
        <mxCell id="MUOkOZ8rBIs0wQs2CUvy-7" value="&lt;div&gt;descrição&lt;/div&gt;" style="ellipse;whiteSpace=wrap;html=1;align=center;labelBackgroundColor=none;fillColor=#f5f5f5;strokeColor=#666666;gradientColor=#b3b3b3;" parent="1" vertex="1">
          <mxGeometry x="727" y="560" width="100" height="40" as="geometry" />
        </mxCell>
        <mxCell id="MUOkOZ8rBIs0wQs2CUvy-12" value="Descrição" style="ellipse;whiteSpace=wrap;html=1;align=center;labelBackgroundColor=none;fillColor=#f5f5f5;strokeColor=#666666;gradientColor=#b3b3b3;" parent="1" vertex="1">
          <mxGeometry x="-373" y="532.5" width="100" height="40" as="geometry" />
        </mxCell>
        <mxCell id="MUOkOZ8rBIs0wQs2CUvy-17" value="imagem_Pefil" style="ellipse;whiteSpace=wrap;html=1;align=center;labelBackgroundColor=none;fillColor=#f5f5f5;strokeColor=#666666;gradientColor=#b3b3b3;" parent="1" vertex="1">
          <mxGeometry x="-373" y="580" width="100" height="40" as="geometry" />
        </mxCell>
        <mxCell id="MUOkOZ8rBIs0wQs2CUvy-20" value="" style="endArrow=none;html=1;rounded=0;entryX=0;entryY=0.5;entryDx=0;entryDy=0;exitX=1;exitY=0.5;exitDx=0;exitDy=0;edgeStyle=orthogonalEdgeStyle;labelBackgroundColor=none;strokeColor=#666666;fontColor=default;fillColor=#f5f5f5;" parent="1" source="fp-A4MkA556f69ubHUxs-44" target="fp-A4MkA556f69ubHUxs-1" edge="1">
          <mxGeometry relative="1" as="geometry">
            <mxPoint x="-263" y="560" as="sourcePoint" />
            <mxPoint x="7" y="470" as="targetPoint" />
          </mxGeometry>
        </mxCell>
        <mxCell id="MUOkOZ8rBIs0wQs2CUvy-23" value="" style="endArrow=none;html=1;rounded=0;entryX=0;entryY=0.5;entryDx=0;entryDy=0;exitX=1;exitY=0.5;exitDx=0;exitDy=0;edgeStyle=orthogonalEdgeStyle;labelBackgroundColor=none;strokeColor=#666666;fontColor=default;fillColor=#f5f5f5;" parent="1" source="MUOkOZ8rBIs0wQs2CUvy-17" target="fp-A4MkA556f69ubHUxs-1" edge="1">
          <mxGeometry relative="1" as="geometry">
            <mxPoint x="-263" y="610" as="sourcePoint" />
            <mxPoint x="7" y="470" as="targetPoint" />
          </mxGeometry>
        </mxCell>
        <mxCell id="tyfLZ9diZcg1NOo2T1-P-10" style="edgeStyle=orthogonalEdgeStyle;rounded=0;orthogonalLoop=1;jettySize=auto;html=1;exitX=1;exitY=0.5;exitDx=0;exitDy=0;entryX=0;entryY=0.75;entryDx=0;entryDy=0;endArrow=none;endFill=0;labelBackgroundColor=none;strokeColor=#666666;fontColor=default;fillColor=#f5f5f5;gradientColor=#b3b3b3;" parent="1" source="tyfLZ9diZcg1NOo2T1-P-7" target="fp-A4MkA556f69ubHUxs-3" edge="1">
          <mxGeometry relative="1" as="geometry" />
        </mxCell>
        <mxCell id="tyfLZ9diZcg1NOo2T1-P-7" value="ID_usuario" style="ellipse;whiteSpace=wrap;html=1;align=center;labelBackgroundColor=none;fillColor=#f5f5f5;strokeColor=#666666;gradientColor=#b3b3b3;" parent="1" vertex="1">
          <mxGeometry x="167" y="265" width="100" height="40" as="geometry" />
        </mxCell>
        <mxCell id="tyfLZ9diZcg1NOo2T1-P-14" style="edgeStyle=orthogonalEdgeStyle;rounded=0;orthogonalLoop=1;jettySize=auto;html=1;exitX=1;exitY=0.5;exitDx=0;exitDy=0;entryX=0;entryY=0.75;entryDx=0;entryDy=0;endArrow=none;endFill=0;labelBackgroundColor=none;strokeColor=#666666;fontColor=default;fillColor=#f5f5f5;gradientColor=#b3b3b3;" parent="1" source="tyfLZ9diZcg1NOo2T1-P-11" target="fp-A4MkA556f69ubHUxs-3" edge="1">
          <mxGeometry relative="1" as="geometry">
            <Array as="points">
              <mxPoint x="307" y="340" />
              <mxPoint x="307" y="245" />
            </Array>
          </mxGeometry>
        </mxCell>
        <mxCell id="tyfLZ9diZcg1NOo2T1-P-11" value="Comentario_&lt;div&gt;usuario&lt;/div&gt;" style="ellipse;whiteSpace=wrap;html=1;align=center;labelBackgroundColor=none;fillColor=#f5f5f5;strokeColor=#666666;gradientColor=#b3b3b3;" parent="1" vertex="1">
          <mxGeometry x="170" y="320" width="100" height="40" as="geometry" />
        </mxCell>
        <mxCell id="tyfLZ9diZcg1NOo2T1-P-22" value="DATA HORA&lt;div&gt;&lt;br&gt;&lt;/div&gt;" style="ellipse;whiteSpace=wrap;html=1;align=center;labelBackgroundColor=none;fillColor=#f5f5f5;strokeColor=#666666;gradientColor=#b3b3b3;" parent="1" vertex="1">
          <mxGeometry x="790" y="330" width="100" height="40" as="geometry" />
        </mxCell>
        <mxCell id="tyfLZ9diZcg1NOo2T1-P-36" value="" style="endArrow=none;html=1;rounded=0;exitX=1;exitY=0.5;exitDx=0;exitDy=0;entryX=0;entryY=0.5;entryDx=0;entryDy=0;edgeStyle=orthogonalEdgeStyle;labelBackgroundColor=none;strokeColor=#666666;fontColor=default;fillColor=#f5f5f5;" parent="1" target="tyfLZ9diZcg1NOo2T1-P-22" edge="1">
          <mxGeometry relative="1" as="geometry">
            <mxPoint x="669" y="350" as="sourcePoint" />
            <mxPoint x="727" y="280" as="targetPoint" />
          </mxGeometry>
        </mxCell>
        <mxCell id="tyfLZ9diZcg1NOo2T1-P-37" value="COMENTARIO/POSTAGEM" style="shape=associativeEntity;whiteSpace=wrap;html=1;align=center;labelBackgroundColor=none;fillColor=#fad7ac;strokeColor=#b46504;" parent="1" vertex="1">
          <mxGeometry x="497" y="320" width="191" height="60" as="geometry" />
        </mxCell>
        <mxCell id="me2xvYG_eSxRrmfFtrP5-4" value="id" style="ellipse;whiteSpace=wrap;html=1;align=center;fillColor=#f5f5f5;strokeColor=#666666;gradientColor=#b3b3b3;" vertex="1" parent="1">
          <mxGeometry x="790" y="290" width="100" height="40" as="geometry" />
        </mxCell>
        <mxCell id="me2xvYG_eSxRrmfFtrP5-5" value="" style="endArrow=none;html=1;rounded=0;exitX=1;exitY=0.5;exitDx=0;exitDy=0;entryX=0;entryY=0.5;entryDx=0;entryDy=0;edgeStyle=orthogonalEdgeStyle;fillColor=#f5f5f5;strokeColor=#666666;" edge="1" parent="1" source="tyfLZ9diZcg1NOo2T1-P-37" target="me2xvYG_eSxRrmfFtrP5-4">
          <mxGeometry relative="1" as="geometry">
            <mxPoint x="730" y="220" as="sourcePoint" />
            <mxPoint x="890" y="220" as="targetPoint" />
          </mxGeometry>
        </mxCell>
        <mxCell id="me2xvYG_eSxRrmfFtrP5-6" value="categoria" style="ellipse;whiteSpace=wrap;html=1;align=center;fillColor=#f5f5f5;gradientColor=#b3b3b3;strokeColor=#666666;" vertex="1" parent="1">
          <mxGeometry x="-373" y="620" width="100" height="40" as="geometry" />
        </mxCell>
        <mxCell id="me2xvYG_eSxRrmfFtrP5-9" value="" style="endArrow=none;html=1;rounded=0;exitX=1;exitY=0.5;exitDx=0;exitDy=0;entryX=0;entryY=0.5;entryDx=0;entryDy=0;edgeStyle=orthogonalEdgeStyle;" edge="1" parent="1" source="me2xvYG_eSxRrmfFtrP5-6" target="fp-A4MkA556f69ubHUxs-1">
          <mxGeometry relative="1" as="geometry">
            <mxPoint x="-150" y="670" as="sourcePoint" />
            <mxPoint x="10" y="670" as="targetPoint" />
          </mxGeometry>
        </mxCell>
      </root>
    </mxGraphModel>
  </diagram>
</mxfile>
